<?xml version="1.0" encoding="UTF-8" standalone="no"?>
<svg
   version="1.1"
   viewBox="0.00 0.00 256.00 256.00"
   id="svg68"
   sodipodi:docname="fedow.svg"
   inkscape:version="1.1.2 (0a00cf5339, 2022-02-04)"
   xmlns:inkscape="http://www.inkscape.org/namespaces/inkscape"
   xmlns:sodipodi="http://sodipodi.sourceforge.net/DTD/sodipodi-0.dtd"
   xmlns="http://www.w3.org/2000/svg"
   xmlns:svg="http://www.w3.org/2000/svg">
  <defs
     id="defs72" />
  <sodipodi:namedview
     id="namedview70"
     pagecolor="#ffffff"
     bordercolor="#999999"
     borderopacity="1"
     inkscape:pageshadow="0"
     inkscape:pageopacity="0"
     inkscape:pagecheckerboard="0"
     showgrid="false"
     inkscape:zoom="2.4113446"
     inkscape:cx="57.644187"
     inkscape:cy="150.95312"
     inkscape:window-width="1720"
     inkscape:window-height="1371"
     inkscape:window-x="1720"
     inkscape:window-y="32"
     inkscape:window-maximized="0"
     inkscape:current-layer="svg68" />
  <g
     stroke-width="2.00"
     fill="none"
     stroke-linecap="butt"
     id="g34">
    <path
       stroke="#707274"
       vector-effect="non-scaling-stroke"
       d="   M 143.49 212.71   C 132.95 213.85 123.97 214.78 115.75 213.25   Q 99.25 210.19 86.27 204.94   C 65.79 196.66 50.10 174.73 41.83 155.04   Q 41.40 154.01 41.73 155.08   C 47.45 173.49 58.50 188.64 74.03 200.01   C 92.90 213.83 116.76 222.90 140.43 219.16   Q 141.00 219.07 141.00 218.49   L 141.00 217.52   A 0.77 0.76 82.6 0 1 141.57 216.78   L 143.83 216.18   Q 144.44 216.02 144.72 216.59   Q 145.61 218.43 147.75 217.93   Q 171.79 212.30 189.87 195.62   C 222.00 165.96 228.91 117.02 204.38 80.41   Q 181.29 45.95 139.24 40.96   C 137.10 40.70 132.05 43.03 129.70 43.74   A 0.37 0.37 0.0 0 0 129.78 44.46   C 137.68 45.04 146.02 46.00 153.38 48.05   C 191.70 58.72 218.70 94.67 215.14 135.00   Q 211.30 178.48 172.96 201.90   Q 157.78 211.17 143.49 212.71"
       id="path2" />
    <path
       stroke="#707274"
       vector-effect="non-scaling-stroke"
       d="   M 204.89 159.90   A 1.71 1.56 -59.6 0 1 204.34 157.30   Q 205.15 156.30 206.59 156.49   Q 207.00 156.54 207.13 156.15   C 222.03 113.90 201.66 69.04 159.81 52.95   Q 132.57 42.48 102.99 49.75   Q 101.14 50.20 99.72 51.11   Q 99.08 51.52 99.75 51.87   L 100.58 52.30   A 1.08 1.07 -40.8 0 1 100.43 54.27   Q 87.66 58.68 77.01 66.69   C 74.05 68.91 70.95 72.51 67.64 75.62   Q 53.86 88.60 48.66 107.87   Q 48.57 108.19 48.24 108.24   L 47.93 108.28   Q 47.36 108.36 47.30 108.94   C 46.32 118.46 45.26 126.07 47.09 136.69   C 48.88 147.14 50.30 159.17 54.54 168.36   C 58.81 177.61 65.47 185.34 71.88 193.18   Q 72.26 193.65 72.76 193.33   Q 74.07 192.50 74.30 191.06   A 1.29 1.28 -65.5 0 1 76.39 190.27   C 79.14 192.59 81.88 194.89 84.94 196.76   C 128.67 223.45 182.44 208.52 205.01 162.29   Q 205.33 161.62 205.37 161.10   Q 205.45 160.10 204.89 159.90"
       id="path4" />
    <path
       stroke="#707274"
       vector-effect="non-scaling-stroke"
       d="   M 76.41 56.89   C 58.30 69.48 46.61 86.72 41.82 108.25   C 38.62 122.64 38.34 136.93 41.90 150.82   Q 42.02 151.29 42.42 151.48   A 0.28 0.28 0.0 0 0 42.80 151.12   C 39.32 141.91 42.60 132.41 44.08 122.86   Q 45.39 114.44 46.73 106.05   C 50.13 84.68 61.96 71.64 76.54 57.04   Q 77.35 56.23 76.41 56.89"
       id="path6" />
    <path
       stroke="#707274"
       vector-effect="non-scaling-stroke"
       d="   M 200.05 162.31   C 229.27 99.40 172.72 38.18 107.63 54.20   C 105.62 54.69 104.29 56.64 102.14 57.39   C 73.97 67.19 55.13 90.29 48.47 118.69   Q 46.81 125.74 47.32 131.70   C 50.17 165.15 73.19 195.87 106.51 204.22   C 145.13 213.90 183.02 198.97 200.05 162.31"
       id="path8" />
    <path
       stroke="#707274"
       vector-effect="non-scaling-stroke"
       d="   M 175.53 175.66   C 206.92 143.92 202.35 92.94 164.89 67.92   Q 164.22 67.48 164.23 68.28   L 164.29 72.70   Q 164.30 73.26 164.75 73.60   C 199.04 99.13 201.18 142.80 175.29 175.44   Q 175.25 175.49 175.30 175.54   Q 175.32 175.57 175.34 175.62   Q 175.42 175.76 175.53 175.66"
       id="path10" />
    <path
       stroke="#707274"
       vector-effect="non-scaling-stroke"
       d="   M 168.97 171.70   C 169.84 170.80 171.47 169.44 172.49 168.03   Q 172.86 167.52 172.32 167.84   C 169.92 169.25 167.34 170.34 165.12 172.01   Q 142.35 189.13 113.51 184.48   C 88.60 180.46 70.02 154.78 70.13 130.32   C 70.27 100.95 88.08 78.97 117.37 72.93   Q 120.99 72.19 117.30 72.38   Q 112.96 72.60 107.00 74.54   Q 82.18 82.62 72.31 106.73   C 61.30 133.61 71.66 165.58 96.89 180.29   C 119.05 193.21 150.82 190.34 168.97 171.70"
       id="path12" />
    <path
       stroke="#c8c8c6"
       vector-effect="non-scaling-stroke"
       d="   M 76.64 146.13   Q 79.08 144.59 80.09 150.45   A 0.66 0.65 55.2 0 0 81.30 150.67   L 81.45 150.41"
       id="path14" />
    <path
       stroke="#707274"
       vector-effect="non-scaling-stroke"
       d="   M 81.45 150.41   C 81.93 152.75 84.66 153.96 84.75 154.52   Q 84.79 154.78 84.53 154.78   L 82.68 154.74   Q 82.05 154.73 82.24 155.33   L 82.36 155.70   Q 82.56 156.35 82.94 155.78   Q 83.07 155.58 83.10 155.46   A 0.76 0.68 -40.5 0 1 84.53 155.49   Q 84.49 156.36 83.71 156.71   A 0.70 0.70 0.0 0 0 83.64 157.94   Q 86.68 159.77 88.70 162.19   C 122.42 202.49 186.45 173.17 182.30 122.05   C 180.73 102.70 168.58 85.41 151.33 76.77   Q 151.23 76.72 151.12 76.75   Q 151.00 76.78 150.88 76.82   Q 150.81 76.84 150.88 76.87   C 181.90 93.09 192.23 135.13 167.53 161.78   C 149.70 181.01 120.58 186.20 98.62 170.35   C 94.02 167.03 89.31 161.76 84.51 157.54   Q 84.17 157.23 84.47 156.88   L 85.06 156.20   Q 85.46 155.74 85.79 156.24   C 89.65 162.01 98.06 168.98 104.48 172.53   Q 118.95 180.54 135.26 177.77   C 164.17 172.88 183.68 148.01 177.99 118.65   C 176.75 112.30 173.34 105.82 170.56 99.65   Q 170.32 99.13 170.87 98.97   Q 171.00 98.93 171.06 98.82   Q 171.42 98.16 171.38 98.05   C 170.15 94.78 167.62 93.08 165.74 91.07   C 131.48 54.24 71.59 79.26 71.35 128.98   C 71.26 149.66 82.53 167.84 100.04 178.73   Q 102.80 180.45 107.22 179.80   Q 107.77 179.72 107.26 179.49   Q 85.07 169.42 76.64 146.13"
       id="path16" />
    <path
       stroke="#707274"
       vector-effect="non-scaling-stroke"
       d="   M 81.45 150.41   Q 75.55 138.72 75.78 125.63   Q 75.79 125.19 76.01 124.81   Q 76.99 123.06 76.37 121.25   Q 76.22 120.80 76.36 120.35   L 78.41 114.04   Q 78.44 113.93 78.52 113.86   L 78.80 113.57   Q 79.03 113.34 78.96 113.66   Q 76.91 123.14 78.38 132.77   Q 79.88 142.57 85.35 150.36   Q 85.69 150.84 86.26 150.76   Q 86.59 150.72 86.50 150.41   L 85.64 147.26   A 0.48 0.47 -64.5 0 1 86.53 146.94   C 87.56 149.33 89.34 151.01 90.58 152.81   Q 105.07 173.75 129.27 172.89   C 163.05 171.69 183.75 137.26 168.86 107.10   C 167.26 103.85 164.58 100.60 162.35 97.50   C 154.59 86.77 144.69 82.81 131.74 82.26   C 114.40 81.53 100.34 85.35 88.23 98.15   A 0.14 0.14 0.0 0 1 88.00 98.00   Q 88.34 97.18 89.61 95.88   C 111.05 73.82 145.14 74.73 165.47 97.39   Q 165.54 97.47 165.61 97.47   Q 165.72 97.46 165.79 97.30   Q 165.84 97.19 165.77 97.11   Q 151.41 79.56 128.54 79.00   C 97.19 78.24 81.30 98.84 72.96 126.48   Q 72.67 127.46 73.30 128.10   Q 73.60 128.40 73.57 128.83   Q 72.82 138.14 76.64 146.13"
       id="path18" />
    <path
       stroke="#707274"
       vector-effect="non-scaling-stroke"
       d="   M 91.11 160.02   L 83.64 150.22   A 0.02 0.02 0.0 0 0 83.61 150.22   L 83.57 150.25   A 6.03 1.27 52.7 0 0 86.22 155.82   L 86.40 156.06   A 6.03 1.27 52.7 0 0 91.06 160.08   L 91.10 160.05   A 0.02 0.02 0.0 0 0 91.11 160.02"
       id="path20" />
    <path
       stroke="#707274"
       vector-effect="non-scaling-stroke"
       d="   M 93.90 118.58   C 99.47 102.06 114.74 92.37 132.43 95.33   Q 137.59 96.19 142.08 99.87   Q 142.46 100.18 142.87 99.90   L 148.79 95.76   A 0.53 0.53 0.0 0 0 148.79 94.89   C 135.99 85.90 117.06 86.87 104.65 94.39   C 87.22 104.95 80.89 126.19 92.24 143.94   Q 92.48 144.32 92.44 143.87   C 91.74 135.63 91.34 126.20 93.90 118.58"
       id="path22" />
    <path
       stroke="#707274"
       vector-effect="non-scaling-stroke"
       d="   M 120.50 130.19   L 120.50 111.48   A 0.54 0.53 89.5 0 1 121.02 110.94   L 145.18 110.68   Q 145.74 110.67 146.06 110.20   L 150.19 104.09   A 0.39 0.39 0.0 0 0 149.87 103.48   L 110.00 103.51   Q 109.50 103.51 109.50 104.01   L 109.50 160.73   Q 109.50 161.16 109.85 160.92   Q 115.24 157.14 120.07 161.44   Q 120.50 161.82 120.50 161.25   L 120.50 137.75   Q 120.50 137.25 121.00 137.25   L 149.54 137.25   Q 149.97 137.25 150.23 136.91   L 154.10 131.93   Q 154.57 131.34 153.81 131.32   L 120.94 130.65   Q 120.50 130.64 120.50 130.19"
       id="path24" />
    <path
       stroke="#707274"
       vector-effect="non-scaling-stroke"
       d="   M 152.50 105.40   C 149.53 104.65 148.25 108.17 147.12 110.19   Q 146.81 110.73 147.40 110.93   C 150.08 111.85 151.58 107.77 152.72 105.93   Q 152.97 105.51 152.50 105.40"
       id="path26" />
    <path
       stroke="#707274"
       vector-effect="non-scaling-stroke"
       d="   M 126.75 125.72   A 0.31 0.31 0.0 0 0 127.06 126.03   L 159.85 125.98   A 0.31 0.31 0.0 0 0 160.15 125.59   L 158.23 118.80   A 0.31 0.31 0.0 0 0 157.93 118.57   L 127.06 118.82   A 0.31 0.31 0.0 0 0 126.75 119.13   L 126.75 125.72"
       id="path28" />
    <path
       stroke="#707274"
       vector-effect="non-scaling-stroke"
       d="   M 127.68 170.66   L 132.77 165.69   A 0.92 0.91 -22.9 0 0 133.05 165.01   L 132.82 150.98   A 1.21 1.20 89.5 0 1 134.02 149.75   L 141.49 149.75   Q 142.02 149.75 142.20 149.25   L 142.51 148.43   Q 142.81 147.59 141.93 147.60   L 128.96 147.76   A 0.65 0.65 0.0 0 1 128.52 146.62   Q 128.94 146.25 129.76 146.32   Q 138.25 146.98 146.75 146.74   Q 148.12 146.70 148.58 144.85   Q 148.68 144.48 148.29 144.48   L 127.34 144.50   Q 126.75 144.50 126.75 145.09   L 126.75 170.27   Q 126.75 171.57 127.68 170.66"
       id="path30" />
    <path
       stroke="#707274"
       vector-effect="non-scaling-stroke"
       d="   M 144.8606 107.7399   A 0.27 0.27 0.0 0 0 144.5916 107.4690   L 116.5318 107.3710   A 0.27 0.27 0.0 0 0 116.2608 107.6401   L 116.2594 108.0601   A 0.27 0.27 0.0 0 0 116.5284 108.3310   L 144.5882 108.4290   A 0.27 0.27 0.0 0 0 144.8592 108.1599   L 144.8606 107.7399"
       id="path32" />
  </g>
  <path
     fill="#171b22"
     d="   M 115.75 213.25   C 123.97 214.78 132.95 213.85 143.49 212.71   Q 157.78 211.17 172.96 201.90   Q 211.30 178.48 215.14 135.00   C 218.70 94.67 191.70 58.72 153.38 48.05   C 146.02 46.00 137.68 45.04 129.78 44.46   A 0.37 0.37 0.0 0 1 129.70 43.74   C 132.05 43.03 137.10 40.70 139.24 40.96   Q 181.29 45.95 204.38 80.41   C 228.91 117.02 222.00 165.96 189.87 195.62   Q 171.79 212.30 147.75 217.93   Q 145.61 218.43 144.72 216.59   Q 144.44 216.02 143.83 216.18   L 141.57 216.78   A 0.77 0.76 82.6 0 0 141.00 217.52   L 141.00 218.49   Q 141.00 219.07 140.43 219.16   C 116.76 222.90 92.90 213.83 74.03 200.01   C 58.50 188.64 47.45 173.49 41.73 155.08   Q 41.40 154.01 41.83 155.04   C 50.10 174.73 65.79 196.66 86.27 204.94   Q 99.25 210.19 115.75 213.25   Z"
     id="path38" />
  <path
     fill="#171b22"
     d="   M 204.89 159.90   Q 205.45 160.10 205.37 161.10   Q 205.33 161.62 205.01 162.29   C 182.44 208.52 128.67 223.45 84.94 196.76   C 81.88 194.89 79.14 192.59 76.39 190.27   A 1.29 1.28 -65.5 0 0 74.30 191.06   Q 74.07 192.50 72.76 193.33   Q 72.26 193.65 71.88 193.18   C 65.47 185.34 58.81 177.61 54.54 168.36   C 50.30 159.17 48.88 147.14 47.09 136.69   C 45.26 126.07 46.32 118.46 47.30 108.94   Q 47.36 108.36 47.93 108.28   L 48.24 108.24   Q 48.57 108.19 48.66 107.87   Q 53.86 88.60 67.64 75.62   C 70.95 72.51 74.05 68.91 77.01 66.69   Q 87.66 58.68 100.43 54.27   A 1.08 1.07 -40.8 0 0 100.58 52.30   L 99.75 51.87   Q 99.08 51.52 99.72 51.11   Q 101.14 50.20 102.99 49.75   Q 132.57 42.48 159.81 52.95   C 201.66 69.04 222.03 113.90 207.13 156.15   Q 207.00 156.54 206.59 156.49   Q 205.15 156.30 204.34 157.30   A 1.71 1.56 -59.6 0 0 204.89 159.90   Z   M 200.05 162.31   C 229.27 99.40 172.72 38.18 107.63 54.20   C 105.62 54.69 104.29 56.64 102.14 57.39   C 73.97 67.19 55.13 90.29 48.47 118.69   Q 46.81 125.74 47.32 131.70   C 50.17 165.15 73.19 195.87 106.51 204.22   C 145.13 213.90 183.02 198.97 200.05 162.31   Z"
     id="path40" />
  <path
     fill="#171b22"
     d="   M 41.82 108.25   C 46.61 86.72 58.30 69.48 76.41 56.89   Q 77.35 56.23 76.54 57.04   C 61.96 71.64 50.13 84.68 46.73 106.05   Q 45.39 114.44 44.08 122.86   C 42.60 132.41 39.32 141.91 42.80 151.12   A 0.28 0.28 0.0 0 1 42.42 151.48   Q 42.02 151.29 41.90 150.82   C 38.34 136.93 38.62 122.64 41.82 108.25   Z"
     id="path44" />
  <path
     fill="#171b22"
     d="   M 164.89 67.92   C 202.35 92.94 206.92 143.92 175.53 175.66   Q 175.42 175.76 175.34 175.62   Q 175.32 175.57 175.30 175.54   Q 175.25 175.49 175.29 175.44   C 201.18 142.80 199.04 99.13 164.75 73.60   Q 164.30 73.26 164.29 72.70   L 164.23 68.28   Q 164.22 67.48 164.89 67.92   Z"
     id="path46" />
  <path
     fill="#171b22"
     d="   M 168.97 171.70   C 150.82 190.34 119.05 193.21 96.89 180.29   C 71.66 165.58 61.30 133.61 72.31 106.73   Q 82.18 82.62 107.00 74.54   Q 112.96 72.60 117.30 72.38   Q 120.99 72.19 117.37 72.93   C 88.08 78.97 70.27 100.95 70.13 130.32   C 70.02 154.78 88.60 180.46 113.51 184.48   Q 142.35 189.13 165.12 172.01   C 167.34 170.34 169.92 169.25 172.32 167.84   Q 172.86 167.52 172.49 168.03   C 171.47 169.44 169.84 170.80 168.97 171.70   Z"
     id="path48" />
  <path
     fill="#171b22"
     d="   M 81.45 150.41   Q 75.55 138.72 75.78 125.63   Q 75.79 125.19 76.01 124.81   Q 76.99 123.06 76.37 121.25   Q 76.22 120.80 76.36 120.35   L 78.41 114.04   Q 78.44 113.93 78.52 113.86   L 78.80 113.57   Q 79.03 113.34 78.96 113.66   Q 76.91 123.14 78.38 132.77   Q 79.88 142.57 85.35 150.36   Q 85.69 150.84 86.26 150.76   Q 86.59 150.72 86.50 150.41   L 85.64 147.26   A 0.48 0.47 -64.5 0 1 86.53 146.94   C 87.56 149.33 89.34 151.01 90.58 152.81   Q 105.07 173.75 129.27 172.89   C 163.05 171.69 183.75 137.26 168.86 107.10   C 167.26 103.85 164.58 100.60 162.35 97.50   C 154.59 86.77 144.69 82.81 131.74 82.26   C 114.40 81.53 100.34 85.35 88.23 98.15   A 0.14 0.14 0.0 0 1 88.00 98.00   Q 88.34 97.18 89.61 95.88   C 111.05 73.82 145.14 74.73 165.47 97.39   Q 165.54 97.47 165.61 97.47   Q 165.72 97.46 165.79 97.30   Q 165.84 97.19 165.77 97.11   Q 151.41 79.56 128.54 79.00   C 97.19 78.24 81.30 98.84 72.96 126.48   Q 72.67 127.46 73.30 128.10   Q 73.60 128.40 73.57 128.83   Q 72.82 138.14 76.64 146.13   Q 85.07 169.42 107.26 179.49   Q 107.77 179.72 107.22 179.80   Q 102.80 180.45 100.04 178.73   C 82.53 167.84 71.26 149.66 71.35 128.98   C 71.59 79.26 131.48 54.24 165.74 91.07   C 167.62 93.08 170.15 94.78 171.38 98.05   Q 171.42 98.16 171.06 98.82   Q 171.00 98.93 170.87 98.97   Q 170.32 99.13 170.56 99.65   C 173.34 105.82 176.75 112.30 177.99 118.65   C 183.68 148.01 164.17 172.88 135.26 177.77   Q 118.95 180.54 104.48 172.53   C 98.06 168.98 89.65 162.01 85.79 156.24   Q 85.46 155.74 85.06 156.20   L 84.47 156.88   Q 84.17 157.23 84.51 157.54   C 89.31 161.76 94.02 167.03 98.62 170.35   C 120.58 186.20 149.70 181.01 167.53 161.78   C 192.23 135.13 181.90 93.09 150.88 76.87   Q 150.81 76.84 150.88 76.82   Q 151.00 76.78 151.12 76.75   Q 151.23 76.72 151.33 76.77   C 168.58 85.41 180.73 102.70 182.30 122.05   C 186.45 173.17 122.42 202.49 88.70 162.19   Q 86.68 159.77 83.64 157.94   A 0.70 0.70 0.0 0 1 83.71 156.71   Q 84.49 156.36 84.53 155.49   A 0.76 0.68 -40.5 0 0 83.10 155.46   Q 83.07 155.58 82.94 155.78   Q 82.56 156.35 82.36 155.70   L 82.24 155.33   Q 82.05 154.73 82.68 154.74   L 84.53 154.78   Q 84.79 154.78 84.75 154.52   C 84.66 153.96 81.93 152.75 81.45 150.41   Z   M 91.11 160.02   L 83.64 150.22   A 0.02 0.02 0.0 0 0 83.61 150.22   L 83.57 150.25   A 6.03 1.27 52.7 0 0 86.22 155.82   L 86.40 156.06   A 6.03 1.27 52.7 0 0 91.06 160.08   L 91.10 160.05   A 0.02 0.02 0.0 0 0 91.11 160.02   Z"
     id="path50" />
  <path
     fill="#171b22"
     d="   M 132.43 95.33   C 114.74 92.37 99.47 102.06 93.90 118.58   C 91.34 126.20 91.74 135.63 92.44 143.87   Q 92.48 144.32 92.24 143.94   C 80.89 126.19 87.22 104.95 104.65 94.39   C 117.06 86.87 135.99 85.90 148.79 94.89   A 0.53 0.53 0.0 0 1 148.79 95.76   L 142.87 99.90   Q 142.46 100.18 142.08 99.87   Q 137.59 96.19 132.43 95.33   Z"
     id="path54" />
  <path
     fill="#171b22"
     d="   M 120.94 130.65   L 153.81 131.32   Q 154.57 131.34 154.10 131.93   L 150.23 136.91   Q 149.97 137.25 149.54 137.25   L 121.00 137.25   Q 120.50 137.25 120.50 137.75   L 120.50 161.25   Q 120.50 161.82 120.07 161.44   Q 115.24 157.14 109.85 160.92   Q 109.50 161.16 109.50 160.73   L 109.50 104.01   Q 109.50 103.51 110.00 103.51   L 149.87 103.48   A 0.39 0.39 0.0 0 1 150.19 104.09   L 146.06 110.20   Q 145.74 110.67 145.18 110.68   L 121.02 110.94   A 0.54 0.53 89.5 0 0 120.50 111.48   L 120.50 130.19   Q 120.50 130.64 120.94 130.65   Z   M 144.8606 107.7399   A 0.27 0.27 0.0 0 0 144.5916 107.4690   L 116.5318 107.3710   A 0.27 0.27 0.0 0 0 116.2608 107.6401   L 116.2594 108.0601   A 0.27 0.27 0.0 0 0 116.5284 108.3310   L 144.5882 108.4290   A 0.27 0.27 0.0 0 0 144.8592 108.1599   L 144.8606 107.7399   Z"
     id="path56" />
  <path
     fill="#171b22"
     d="   M 147.12 110.19   C 148.25 108.17 149.53 104.65 152.50 105.40   Q 152.97 105.51 152.72 105.93   C 151.58 107.77 150.08 111.85 147.40 110.93   Q 146.81 110.73 147.12 110.19   Z"
     id="path58" />
  <path
     fill="#171b22"
     d="   M 126.75 125.72   L 126.75 119.13   A 0.31 0.31 0.0 0 1 127.06 118.82   L 157.93 118.57   A 0.31 0.31 0.0 0 1 158.23 118.80   L 160.15 125.59   A 0.31 0.31 0.0 0 1 159.85 125.98   L 127.06 126.03   A 0.31 0.31 0.0 0 1 126.75 125.72   Z"
     id="path62" />
  <path
     fill="#171b22"
     d="   M 126.75 170.27   L 126.75 145.09   Q 126.75 144.50 127.34 144.50   L 148.29 144.48   Q 148.68 144.48 148.58 144.85   Q 148.12 146.70 146.75 146.74   Q 138.25 146.98 129.76 146.32   Q 128.94 146.25 128.52 146.62   A 0.65 0.65 0.0 0 0 128.96 147.76   L 141.93 147.60   Q 142.81 147.59 142.51 148.43   L 142.20 149.25   Q 142.02 149.75 141.49 149.75   L 134.02 149.75   A 1.21 1.20 89.5 0 0 132.82 150.98   L 133.05 165.01   A 0.92 0.91 -22.9 0 1 132.77 165.69   L 127.68 170.66   Q 126.75 171.57 126.75 170.27   Z"
     id="path64" />
</svg>
